# xmcd
#
# Track frame offsets:
#	150
#	14625
#	29407
#	40723
#	49329
#	65178
#	78153
#	94964
#	107864
#	123859
#	136733
#	150945
#
# Disc length: 2169 seconds
#
# Revision: 0
# Processed by: cddbd v1.5.2PL0 Copyright (c) Steve Scherf et al.
# Submitted via: EasyCDDAExtractor 12.0.4.1
#
DISCID=9908770c
DTITLE=Los Faraones - Estamos Preparados
DYEAR=2011
DGENRE=Rock and Roll
TTITLE0=Prefiero la noche(Master)
TTITLE1=La reina de la autopista(Master)
TTITLE2=Maldito tren( Master)
TTITLE3=Pólvora(Master)
TTITLE4=Put the blame on me(Master)
TTITLE5=Estoy preparado( Master)
TTITLE6=I can help(Master)
TTITLE7=Estrella fugaz (Master)
TTITLE8=Fuimos amigos( Master)
TTITLE9=Blue, blue day( Master)
TTITLE10=Extraña mujer (Master)
TTITLE11=Seven nights to rock( Master)
EXTD=
EXTT0=
EXTT1=
EXTT2=
EXTT3=
EXTT4=
EXTT5=
EXTT6=
EXTT7=
EXTT8=
EXTT9=
EXTT10=
EXTT11=
PLAYORDER=
